<svg xmlns="http://www.w3.org/2000/svg" width="20.005" height="12" viewBox="0 0 20.005 12">
  <path id="Path_223850" data-name="Path 223850" d="M1.948,7.318a1,1,0,0,1-1.9-.634c.037-.11.078-.22.124-.326.08-.19.2-.452.36-.762a11.053,11.053,0,0,1,1.6-2.272A10.291,10.291,0,0,1,10,0a10.291,10.291,0,0,1,7.862,3.324,11,11,0,0,1,1.96,3.034l.092.226c.006.016.026.12.046.22L20,7s.168.666-.684.948a1,1,0,0,1-1.264-.628V7.314l-.012-.032-.062-.156a9,9,0,0,0-1.59-2.452A8.31,8.31,0,0,0,10,2,8.3,8.3,0,0,0,3.612,4.676a9,9,0,0,0-1.59,2.45l-.06.156ZM10,4a4,4,0,1,0,2.828,1.172A4,4,0,0,0,10,4ZM8,8a2,2,0,1,1,.586,1.414A2,2,0,0,1,8,8Z" transform="translate(-0.009)" fill="#6c757d"/>
</svg>
