<svg xmlns="http://www.w3.org/2000/svg" xmlns:xlink="http://www.w3.org/1999/xlink" width="24.983" height="24.984" viewBox="0 0 24.983 24.984">
  <defs>
    <clipPath id="clip-path">
      <rect id="Rectangle_19894" data-name="Rectangle 19894" width="24.983" height="24.983" transform="translate(0.008 0.508)" fill="#fff"/>
    </clipPath>
  </defs>
  <g id="Group_93351" data-name="Group 93351" transform="translate(-0.008 -0.508)" clip-path="url(#clip-path)">
    <path id="Path_223855" data-name="Path 223855" d="M24.992,13A12.492,12.492,0,1,0,10.548,25.34V16.611H7.376V13h3.172V10.248c0-3.131,1.865-4.86,4.718-4.86a19.216,19.216,0,0,1,2.8.244V8.706H16.488a1.806,1.806,0,0,0-2.036,1.952V13h3.465l-.554,3.611H14.452V25.34A12.5,12.5,0,0,0,24.992,13Z" fill="#1877f2"/>
    <path id="Path_223856" data-name="Path 223856" d="M17.362,16.611,17.916,13H14.452V10.658a1.806,1.806,0,0,1,2.036-1.952h1.575V5.632a19.209,19.209,0,0,0-2.8-.244c-2.853,0-4.718,1.729-4.718,4.86V13H7.376v3.611h3.172V25.34a12.631,12.631,0,0,0,3.9,0V16.611Z" fill="#fff"/>
  </g>
</svg>
